# xmcd CD database file
#
# Track frame offsets:
#	150
#	13615
#	27045
#	39802
#	49635
#	60462
#	71092
#	82762
#	96790
#	110132
#	123547
#	135437
#	147852
#	162165
#	173800
#	184045
#	198000
#	212075
#
# Disc length: 3027 seconds
#
# Revision: 0
# Processed by: cddbd v1.5.2PL0 Copyright (c) Steve Scherf et al.
# Submitted via: CDex 1.51
#
DISCID=e70bd112
DTITLE=Gogi Grant - Gogi Grant Her Very Best
DYEAR=2002
DGENRE=Jazz
TTITLE0=The Wayward Wind
TTITLE1=Suddenly There's A Valley
TTITLE2=You're In Love
TTITLE3=Wrap Your Troubles In Dreams
TTITLE4=All of Me
TTITLE5=Love Is
TTITLE6=I Let a Song Go Out of My Heart
TTITLE7=What's New
TTITLE8=I Gave You My Heart
TTITLE9=It Happens Every Spring
TTITLE10=Love is The Sweetest Thing
TTITLE11=When the Tide Is High
TTITLE12=Who We Are
TTITLE13=The One I Love (Belongs to Somebody Else)
TTITLE14=We Believe In Love
TTITLE15=I'll Never Be the Same
TTITLE16=There Will Never Be Another You
TTITLE17=I Don't Want to Walk Without You
EXTD=YEAR: 2002
EXTT0=
EXTT1=
EXTT2=
EXTT3=
EXTT4=
EXTT5=
EXTT6=
EXTT7=
EXTT8=
EXTT9=
EXTT10=
EXTT11=
EXTT12=
EXTT13=
EXTT14=
EXTT15=
EXTT16=
EXTT17=
PLAYORDER=
